<?xml version="1.0" encoding="utf-8"?>
<!-- Generator: Adobe Illustrator 21.1.0, SVG Export Plug-In . SVG Version: 6.00 Build 0)  -->
<svg version="1.1" xmlns="http://www.w3.org/2000/svg" xmlns:xlink="http://www.w3.org/1999/xlink" x="0px" y="0px"
	 viewBox="0 0 60 12"  xml:space="preserve">
    <g id="home-page" stroke="none" stroke-width="1" fill="none" fill-rule="evenodd">
        <g id="blaze-1" transform="translate(-984.000000, -701.000000)" fill-rule="nonzero" fill="#00A1E0">
            <g id="Tiles-Copy" transform="translate(55.000000, 681.000000)">
                <g id="header/arrows" transform="translate(176.000000, 0.000000)">
                    <path d="M764.542392,25.9297872 L766.787234,21.2510638 L766.404255,21.0659574 L766.595745,21.4680851 L766.43617,21.0723404 L766.053191,20.887234 L763.596406,25.9297872 L759.153191,25.9297872 C758.8888,25.9297872 758.674468,26.144119 758.674468,26.4085106 C758.674468,26.6729023 758.8888,26.887234 759.153191,26.887234 L763.689387,26.887234 L765.555319,30.7234043 L754.570213,26.306383 L766.56383,21.4617021 L766.404255,21.0659574 L766.812766,21.2191489 C766.887573,21.0607128 766.858173,20.8726732 766.738575,20.7446326 C766.618976,20.616592 766.433376,20.5744541 766.270213,20.6382979 L753.268085,25.9170213 C753.107456,25.9828191 753.002533,26.1391832 753.002533,26.312766 C753.002533,26.4863488 753.107456,26.6427128 753.268085,26.7085106 L766.270213,31.9297872 C766.433376,31.9936311 766.618976,31.9514931 766.738575,31.8234525 C766.858173,31.6954119 766.887573,31.5073723 766.812766,31.3489362 L764.64404,26.887234 L798.597381,26.887234 L803.744681,31.8468085 L803.744681,31.8914894 C803.920942,32.0554122 804.196715,32.04541 804.360638,31.8691489 C804.524561,31.6928878 804.514559,31.4171143 804.338298,31.2531915 L799.808122,26.887234 L802.669067,26.887234 L807.804255,31.8468085 L807.804255,31.8914894 C807.980516,32.0554122 808.25629,32.04541 808.420213,31.8691489 C808.584136,31.6928878 808.574133,31.4171143 808.397872,31.2531915 L803.867696,26.887234 L806.728969,26.887234 L811.870213,31.8468085 L811.870213,31.8914894 C812.046474,32.0554122 812.322247,32.04541 812.48617,31.8691489 C812.650093,31.6928878 812.640091,31.4171143 812.46383,31.2531915 L807.933653,26.887234 L812.291489,26.887234 C812.555881,26.887234 812.770213,26.6729023 812.770213,26.4085106 C812.770213,26.144119 812.555881,25.9297872 812.291489,25.9297872 L807.77362,25.9297872 L812.46383,21.3978723 C812.577851,21.2918329 812.626639,21.1330189 812.591817,20.9812542 C812.556994,20.8294894 812.443851,20.7078305 812.295008,20.6621052 C812.146165,20.6163799 811.984234,20.653535 811.870213,20.7595745 L806.504063,25.9297872 L803.707663,25.9297872 L808.397872,21.3978723 C808.511893,21.2918329 808.560682,21.1330189 808.525859,20.9812542 C808.491037,20.8294894 808.377894,20.7078305 808.229051,20.6621052 C808.080207,20.6163799 807.918276,20.653535 807.804255,20.7595745 L802.444426,25.9297872 L799.648088,25.9297872 L804.338298,21.3978723 C804.514559,21.2339495 804.524561,20.958176 804.360638,20.7819149 C804.196715,20.6056538 803.920942,20.5956517 803.744681,20.7595745 L798.37221,25.9297872 L764.542392,25.9297872 Z" id="Combined-Shape"></path>
                </g>
            </g>
        </g>
    </g>
</svg>